<svg width="432" height="432" viewBox="0 0 432 432" fill="none" xmlns="http://www.w3.org/2000/svg">
<g clip-path="url(#clip0)">
<rect width="432" height="432" fill="#C0F1D6"/>
<path d="M281.5 442L120 297L319 146L406.5 221.5L430.5 240.5V432L281.5 442Z" fill="url(#paint0_linear)" fill-opacity="0.2"/>
<circle cx="216" cy="216" r="125" fill="url(#paint1_linear)"/>
<path d="M250.944 250.944H181.056C176.881 250.944 173.5 247.563 173.5 243.389V199.944C173.5 195.77 176.881 192.389 181.056 192.389H250.944C255.119 192.389 258.5 195.77 258.5 199.944V243.389C258.5 247.563 255.119 250.944 250.944 250.944Z" fill="#F3F3F1"/>
<path d="M220.722 224.5H211.278C209.192 224.5 207.5 222.808 207.5 220.722V211.278C207.5 209.192 209.192 207.5 211.278 207.5H220.722C222.808 207.5 224.5 209.192 224.5 211.278V220.722C224.5 222.808 222.808 224.5 220.722 224.5Z" fill="#2FDF84"/>
<path d="M182 243.389V199.944C182 195.77 185.381 192.389 189.556 192.389H181.056C176.881 192.389 173.5 195.77 173.5 199.944V243.389C173.5 247.563 176.881 250.944 181.056 250.944H189.556C185.381 250.944 182 247.563 182 243.389Z" fill="#D5DBE1"/>
<path d="M216 220.722V211.278C216 209.192 217.692 207.5 219.778 207.5H211.278C209.192 207.5 207.5 209.192 207.5 211.278V220.722C207.5 222.808 209.192 224.5 211.278 224.5H219.778C217.692 224.5 216 222.808 216 220.722Z" fill="#00B871"/>
<path d="M250.944 253.778H181.056C175.325 253.778 170.667 249.12 170.667 243.389V199.944C170.667 194.214 175.325 189.556 181.056 189.556H250.944C256.675 189.556 261.333 194.214 261.333 199.944V243.389C261.333 249.12 256.675 253.778 250.944 253.778ZM181.056 195.222C178.453 195.222 176.333 197.342 176.333 199.944V243.389C176.333 245.992 178.453 248.111 181.056 248.111H250.944C253.547 248.111 255.667 245.992 255.667 243.389V199.944C255.667 197.342 253.547 195.222 250.944 195.222H181.056Z" fill="black"/>
<path d="M231.111 192.389H225.444V184.833C225.444 184.312 225.021 183.889 224.5 183.889H207.5C206.979 183.889 206.556 184.312 206.556 184.833V192.389H200.889V184.833C200.889 181.188 203.854 178.222 207.5 178.222H224.5C228.146 178.222 231.111 181.188 231.111 184.833V192.389Z" fill="black"/>
<path d="M173.5 212.222H207.5V217.889H173.5V212.222Z" fill="black"/>
<path d="M224.5 212.222H258.5V217.889H224.5V212.222Z" fill="black"/>
<path d="M220.722 227.333H211.278C207.632 227.333 204.667 224.368 204.667 220.722V211.278C204.667 207.632 207.632 204.667 211.278 204.667H220.722C224.368 204.667 227.333 207.632 227.333 211.278V220.722C227.333 224.368 224.368 227.333 220.722 227.333ZM211.278 210.333C210.756 210.333 210.333 210.756 210.333 211.278V220.722C210.333 221.244 210.756 221.667 211.278 221.667H220.722C221.244 221.667 221.667 221.244 221.667 220.722V211.278C221.667 210.756 221.244 210.333 220.722 210.333H211.278Z" fill="black"/>
<path d="M155.556 250.944C155.556 249.38 156.824 248.111 158.389 248.111H273.611C275.176 248.111 276.444 249.38 276.444 250.944C276.444 252.509 275.176 253.778 273.611 253.778H158.389C156.824 253.778 155.556 252.509 155.556 250.944Z" fill="black"/>
</g>
<defs>
<linearGradient id="paint0_linear" x1="282" y1="296" x2="372.5" y2="398.5" gradientUnits="userSpaceOnUse">
<stop stop-color="#05386B" stop-opacity="0.6"/>
<stop offset="1" stop-color="#05386B" stop-opacity="0"/>
</linearGradient>
<linearGradient id="paint1_linear" x1="216" y1="91" x2="216" y2="341" gradientUnits="userSpaceOnUse">
<stop stop-color="#20BF55"/>
<stop offset="1" stop-color="#01BAEF"/>
</linearGradient>
<clipPath id="clip0">
<rect width="432" height="432" fill="white"/>
</clipPath>
</defs>
</svg>
